<svg width="9" height="11" viewBox="0 0 9 11" fill="none" xmlns="http://www.w3.org/2000/svg">
<path d="M3.125 5.04175H2.20833V5.95842H3.125V5.04175ZM4.95833 5.04175H4.04167V5.95842H4.95833V5.04175ZM6.79167 5.04175H5.875V5.95842H6.79167V5.04175ZM7.70833 1.83341H7.25V0.916748H6.33333V1.83341H2.66667V0.916748H1.75V1.83341H1.29167C0.782917 1.83341 0.379583 2.24591 0.379583 2.75008L0.375 9.16675C0.375 9.40986 0.471577 9.64302 0.643485 9.81493C0.815394 9.98684 1.04855 10.0834 1.29167 10.0834H7.70833C8.2125 10.0834 8.625 9.67091 8.625 9.16675V2.75008C8.625 2.24591 8.2125 1.83341 7.70833 1.83341ZM7.70833 9.16675H1.29167V4.12508H7.70833V9.16675Z" fill="#979797"/>
</svg>
