<svg width="11" height="11" viewBox="0 0 11 11" fill="none" xmlns="http://www.w3.org/2000/svg">
<path d="M5.5 0.6875C2.84238 0.6875 0.6875 2.84238 0.6875 5.5C0.6875 8.15762 2.84238 10.3125 5.5 10.3125C8.15762 10.3125 10.3125 8.15762 10.3125 5.5C10.3125 2.84238 8.15762 0.6875 5.5 0.6875ZM5.5 9.49609C3.29355 9.49609 1.50391 7.70645 1.50391 5.5C1.50391 3.29355 3.29355 1.50391 5.5 1.50391C7.70645 1.50391 9.49609 3.29355 9.49609 5.5C9.49609 7.70645 7.70645 9.49609 5.5 9.49609Z" fill="#979797"/>
<path d="M7.37666 6.85996L5.84482 5.75244V3.09375C5.84482 3.04648 5.80615 3.00781 5.75889 3.00781H5.24219C5.19492 3.00781 5.15625 3.04648 5.15625 3.09375V6.05215C5.15625 6.08008 5.16914 6.10586 5.1917 6.12197L6.96846 7.41748C7.00713 7.44541 7.06084 7.43682 7.08877 7.39922L7.396 6.98027C7.42393 6.94053 7.41533 6.88682 7.37666 6.85996Z" fill="#979797"/>
</svg>
