<svg width="21" height="21" viewBox="0 0 21 21" fill="none" xmlns="http://www.w3.org/2000/svg">
<path d="M1.06232 11.1866L9.79093 19.9366C10.1691 20.3158 10.7875 20.3167 11.1657 19.9385L19.9361 11.1885C20.0266 11.0982 20.0984 10.9909 20.1475 10.8728C20.1965 10.7547 20.2217 10.6281 20.2217 10.5002C20.2217 10.3723 20.1965 10.2457 20.1475 10.1276C20.0984 10.0095 20.0266 9.90218 19.9361 9.81187L11.1657 1.06187C11.0753 0.971636 10.9681 0.900098 10.8501 0.851351C10.732 0.802605 10.6056 0.777607 10.4779 0.777787C10.3502 0.777968 10.2238 0.803324 10.1059 0.852404C9.98805 0.901484 9.88101 0.973325 9.79093 1.06382L1.06232 9.81382C0.972131 9.90393 0.900585 10.0109 0.851771 10.1287C0.802957 10.2465 0.777832 10.3727 0.777832 10.5002C0.777832 10.6277 0.802957 10.7539 0.851771 10.8717C0.900585 10.9895 0.972131 11.0965 1.06232 11.1866ZM7.58301 8.55576H12.4441V6.61132L15.3608 9.52798L12.4441 12.4447V10.5002H9.52746V14.3891H7.58301V8.55576Z" fill="white"/>
</svg>
