<svg width="11" height="11" viewBox="0 0 11 11" fill="none" xmlns="http://www.w3.org/2000/svg">
<path d="M2.97925 3.71708C2.57133 3.71708 2.24133 3.38708 2.24133 2.97916C2.24133 2.78346 2.31908 2.59576 2.45746 2.45738C2.59585 2.31899 2.78354 2.24125 2.97925 2.24125C3.38716 2.24125 3.71716 2.57125 3.71716 2.97916C3.71716 3.17487 3.63942 3.36256 3.50103 3.50095C3.36265 3.63934 3.17496 3.71708 2.97925 3.71708ZM2.97925 0.916664C1.83341 0.916664 0.916748 1.83333 0.916748 2.97916C0.916748 4.52375 2.97925 6.81083 2.97925 6.81083C2.97925 6.81083 5.04175 4.52375 5.04175 2.97916C5.04175 1.83333 4.12508 0.916664 2.97925 0.916664ZM8.02092 3.71708C7.82521 3.71708 7.63752 3.63934 7.49913 3.50095C7.36074 3.36256 7.283 3.17487 7.283 2.97916C7.283 2.88226 7.30208 2.7863 7.33917 2.69678C7.37625 2.60725 7.43061 2.5259 7.49913 2.45738C7.56765 2.38886 7.649 2.3345 7.73853 2.29742C7.82805 2.26033 7.92401 2.24125 8.02092 2.24125C8.11782 2.24125 8.21378 2.26033 8.3033 2.29742C8.39283 2.3345 8.47418 2.38886 8.5427 2.45738C8.61122 2.5259 8.66558 2.60725 8.70266 2.69678C8.73974 2.7863 8.75883 2.88226 8.75883 2.97916C8.75883 3.17487 8.68109 3.36256 8.5427 3.50095C8.40431 3.63934 8.21662 3.71708 8.02092 3.71708ZM8.02092 0.916664C6.87508 0.916664 5.95842 1.83333 5.95842 2.97916C5.95842 4.52375 8.02092 6.81083 8.02092 6.81083C8.02092 6.81083 10.0834 4.52375 10.0834 2.97916C10.0834 1.83333 9.16675 0.916664 8.02092 0.916664ZM8.02092 7.33333C7.43883 7.33333 6.92092 7.7 6.72842 8.25H4.27175C4.1503 7.90697 3.89782 7.62607 3.56964 7.46885C3.24146 7.31163 2.86434 7.29092 2.52091 7.41125C2.35022 7.47106 2.19299 7.56392 2.05821 7.68453C1.92343 7.80515 1.81375 7.95114 1.73543 8.11417C1.6571 8.2772 1.61168 8.45407 1.60176 8.63466C1.59183 8.81525 1.6176 8.99603 1.67758 9.16666C1.80067 9.51059 2.05485 9.79184 2.38461 9.94899C2.71437 10.1061 3.09292 10.1264 3.43758 10.0054C3.82716 9.86791 4.12508 9.55625 4.27175 9.16666H6.733C6.98508 9.88166 7.77342 10.2575 8.47925 10.0054C8.65046 9.94622 8.80828 9.85378 8.94366 9.73339C9.07903 9.61301 9.18928 9.46707 9.26807 9.30395C9.34686 9.14082 9.39265 8.96374 9.40279 8.78287C9.41293 8.602 9.38723 8.42091 9.32716 8.25C9.13008 7.7 8.60758 7.33333 8.02092 7.33333ZM8.02092 9.39583C7.83858 9.39583 7.66371 9.3234 7.53478 9.19447C7.40585 9.06553 7.33342 8.89067 7.33342 8.70833C7.33342 8.52599 7.40585 8.35113 7.53478 8.2222C7.66371 8.09326 7.83858 8.02083 8.02092 8.02083C8.20325 8.02083 8.37812 8.09326 8.50705 8.2222C8.63598 8.35113 8.70842 8.52599 8.70842 8.70833C8.70842 8.89067 8.63598 9.06553 8.50705 9.19447C8.37812 9.3234 8.20325 9.39583 8.02092 9.39583Z" fill="#979797"/>
</svg>
