<svg width="8" height="11" viewBox="0 0 8 11" fill="none" xmlns="http://www.w3.org/2000/svg">
<path d="M3.58892 10.7781C0.561875 6.25262 0 5.78817 0 4.125C0 1.84682 1.79085 0 4 0C6.20915 0 8 1.84682 8 4.125C8 5.78817 7.43813 6.25262 4.41108 10.7781C4.21244 11.074 3.78754 11.074 3.58892 10.7781ZM4 5.84375C4.92048 5.84375 5.66667 5.07424 5.66667 4.125C5.66667 3.17576 4.92048 2.40625 4 2.40625C3.07952 2.40625 2.33333 3.17576 2.33333 4.125C2.33333 5.07424 3.07952 5.84375 4 5.84375Z" fill="#979797"/>
</svg>
