<svg width="12" height="12" viewBox="0 0 12 12" fill="none" xmlns="http://www.w3.org/2000/svg">
<path d="M5.13177 10.263C6.27036 10.2628 7.37615 9.88161 8.27305 9.18024L11.093 12L12 11.093L9.18009 8.27325C9.88186 7.37631 10.2633 6.27033 10.2635 5.13149C10.2635 2.30212 7.9613 0 5.13177 0C2.30224 0 0 2.30212 0 5.13149C0 7.96087 2.30224 10.263 5.13177 10.263ZM5.13177 1.28287C7.2544 1.28287 8.9806 3.00898 8.9806 5.13149C8.9806 7.25401 7.2544 8.98012 5.13177 8.98012C3.00914 8.98012 1.28294 7.25401 1.28294 5.13149C1.28294 3.00898 3.00914 1.28287 5.13177 1.28287Z" fill="#999999"/>
</svg>
