<svg width="16" height="16" viewBox="0 0 16 16" fill="none" xmlns="http://www.w3.org/2000/svg">
<path d="M13.7703 10.5523L11.7029 10.3163C11.4598 10.2877 11.2134 10.3146 10.9822 10.395C10.751 10.4753 10.541 10.607 10.368 10.7802L8.87034 12.2779C6.55968 11.1027 4.68155 9.22459 3.50638 6.91393L5.0122 5.40812C5.3622 5.05812 5.53313 4.56975 5.47615 4.07324L5.2401 2.02207C5.19396 1.62501 5.0034 1.25878 4.70471 0.993112C4.40603 0.727447 4.02007 0.580901 3.62034 0.581376H2.2122C1.29243 0.581376 0.527312 1.34649 0.584289 2.26626C1.01568 9.21742 6.57499 14.7686 13.518 15.2C14.4378 15.257 15.2029 14.4918 15.2029 13.5721V12.1639C15.211 11.3418 14.5924 10.65 13.7703 10.5523Z" fill="white"/>
</svg>